<svg width="208" height="51" viewBox="0 0 208 51" fill="none" xmlns="http://www.w3.org/2000/svg">
<path d="M207.581 15.7575C208.861 8.15675 200.928 2.62226 191.033 2.62226C185.721 2.4499 180.461 3.71378 175.807 6.28074C171.154 8.8477 167.279 12.6226 164.591 17.2076C166.073 12.8904 167.241 8.4718 168.087 3.98637H154.44C149.749 25.9064 140.878 38.4456 137.296 38.4456C133.714 38.4456 133.296 33.0711 137.04 15.3315L139.428 3.98637H125.781L122.795 19.4238C122.731 19.7439 122.667 20.0639 122.625 20.3619C122.091 10.1609 115.024 2.62024 102.601 2.62024C95.8394 2.61728 89.2969 5.01726 84.1412 9.39181C78.9855 13.7664 75.5522 19.8308 74.4542 26.5025C73.8648 29.558 73.8506 32.6967 74.4122 35.7574L69.8697 35.8214C69.8697 35.8214 74.3262 23.9663 74.4962 17.4197C74.8382 3.00431 61.1909 2.42824 61.1909 2.42824C55.7859 2.29791 50.4519 3.6792 45.7895 6.41659C42.5694 3.84426 38.5873 2.4121 34.4664 2.34421C30.3454 2.34376 26.2852 3.33873 22.6313 5.24448L23.6994 0H10.4362L0.697266 48.5126H13.9825C13.9825 48.5126 17.1828 31.0489 19.101 27.0605V27.0386C24.8375 13.6693 34.0704 14.2653 34.0704 14.2653C34.0704 14.2653 23.4694 22.9862 21.9793 33.8672C20.0611 47.8985 30.6161 49.6467 31.0421 49.7107C31.0421 49.7107 40.489 52.2049 47.8017 42.652C55.7764 32.251 52.1721 16.6796 52.0241 16.5296C53.0456 15.9625 54.1342 15.5257 55.2644 15.2295C56.277 14.9051 57.3354 14.7463 58.3987 14.7594C58.4207 14.7594 63.3251 15.9755 53.4302 48.4945H77.5465L75.7983 40.0298C78.6566 46.2783 84.9032 50.3927 94.072 50.3927C100.257 50.4097 106.278 48.404 111.217 44.6813C116.156 40.9586 119.743 35.7232 121.431 29.7728C120.492 46.1744 127.615 49.7107 134.332 49.7107C145.485 49.7107 155.23 38.9857 161.668 24.6763C161.518 25.2944 161.39 25.8925 161.284 26.5325C158.896 39.5817 164.611 50.4147 181.328 50.4147C186.737 50.367 192.01 48.7223 196.487 45.6872C200.964 42.652 204.444 38.3617 206.491 33.3551H193.185C192.184 35.2192 190.695 36.7756 188.877 37.8574C187.059 38.9392 184.98 39.5055 182.864 39.4957C175.188 39.4957 173.738 34.7192 173.653 30.9669C191.395 30.9409 205.618 26.5905 207.581 15.7575ZM39.1449 33.1591C37.0347 38.2336 34.0064 38.0416 34.0064 38.0416C34.0064 38.0416 33.2603 35.5673 36.5226 29.9608C37.8194 28.0386 39.2371 26.2007 40.767 24.4583C40.9442 27.4475 40.3873 30.4346 39.1449 33.1591ZM108.597 26.5065C107.397 33.1591 102.883 38.7897 96.1442 38.7897C89.4056 38.7897 86.9314 33.1611 88.1275 26.5065C89.3236 19.8519 93.842 14.2233 100.581 14.2233C107.319 14.2233 109.789 19.8519 108.595 26.5045L108.597 26.5065ZM193.785 16.5276C192.933 21.474 186.535 22.7542 174.936 22.7542C175.832 19.7891 177.66 17.1919 180.149 15.3482C182.638 13.5044 185.655 12.5123 188.753 12.5192C191.993 12.5172 194.125 14.3073 193.785 16.5255V16.5276Z" fill="#2A01FE"/>
</svg>
